<?xml version="1.0" standalone="no"?>
<!DOCTYPE svg PUBLIC "-//W3C//DTD SVG 20010904//EN"
 "http://www.w3.org/TR/2001/REC-SVG-20010904/DTD/svg10.dtd">
<svg version="1.0" xmlns="http://www.w3.org/2000/svg"
 width="500.000000pt" height="500.000000pt" viewBox="0 0 500.000000 500.000000"
 preserveAspectRatio="xMidYMid meet">

<g transform="translate(0.000000,500.000000) scale(0.100000,-0.100000)"
fill="#000000" stroke="none">
<path d="M1008 4663 c-32 -25 -44 -41 -38 -47 7 -7 26 5 58 37 56 56 46 61
-20 10z"/>
<path d="M507 4033 c-4 -3 -7 -11 -7 -17 0 -6 5 -5 12 2 6 6 9 14 7 17 -3 3
-9 2 -12 -2z"/>
<path d="M1527 3949 c7 -7 21 -7 44 -1 l34 10 -44 1 c-32 1 -42 -2 -34 -10z"/>
<path d="M3677 3638 c-14 -18 -81 -116 -151 -218 -69 -102 -129 -189 -134
-195 -4 -5 -33 -48 -64 -95 -32 -47 -111 -165 -177 -262 -66 -98 -197 -293
-292 -433 -154 -231 -173 -256 -194 -251 -18 5 -31 -3 -60 -36 -34 -37 -43
-41 -89 -44 -28 -1 -75 -11 -104 -22 -108 -41 -184 -108 -391 -341 l-83 -94
83 -83 83 -84 34 55 c18 30 38 55 43 55 12 0 12 0 -4 -46 -30 -86 -30 -92 6
-102 17 -6 68 -13 111 -16 83 -6 99 -13 155 -65 27 -25 42 -31 77 -31 l44 0 0
70 c0 63 2 70 19 70 16 0 21 -9 26 -47 12 -90 17 -97 71 -109 84 -18 144 -23
144 -10 0 6 5 4 11 -4 8 -11 9 -6 5 20 -18 116 -18 120 -7 120 7 0 19 -17 27
-38 38 -96 48 -112 66 -112 10 0 18 2 18 4 0 2 -20 46 -44 99 -79 170 -99 246
-101 377 -1 108 -3 119 -33 181 -33 70 -40 103 -21 115 7 4 9 22 6 47 -5 39 1
51 245 416 138 207 275 410 303 451 140 202 419 626 417 633 -1 4 2 7 7 7 10
0 9 19 -2 38 -13 19 -24 15 -50 -20z m-952 -1499 c11 -17 -1 -22 -24 -9 -12 6
-21 17 -21 26 0 11 4 12 19 4 11 -5 23 -15 26 -21z"/>
<path d="M2031 2804 c-29 -67 -84 -119 -157 -149 l-59 -24 30 -11 c93 -34 129
-69 160 -155 25 -68 30 -72 43 -27 17 57 78 121 139 148 30 13 61 24 71 25 9
0 -8 11 -38 25 -84 38 -119 79 -155 183 l-12 36 -22 -51z"/>
<path d="M2491 2761 c-7 -12 -25 -30 -42 -40 l-29 -18 24 -13 c14 -7 30 -26
37 -43 12 -28 13 -29 21 -8 4 12 21 29 38 39 35 20 37 28 9 37 -11 4 -27 21
-34 38 -12 30 -13 30 -24 8z"/>
<path d="M3511 2643 c-28 -63 -94 -126 -154 -146 l-41 -13 55 -26 c66 -30 100
-71 125 -150 l17 -57 23 56 c13 30 33 67 46 80 26 28 108 73 133 73 24 0 9 17
-22 25 -64 15 -119 82 -147 176 l-11 37 -24 -55z"/>
<path d="M3935 2611 c-4 -12 -20 -30 -36 -40 l-29 -18 25 -13 c14 -8 28 -24
31 -37 7 -26 24 -31 24 -8 0 8 14 24 32 35 27 16 29 20 15 26 -10 3 -26 23
-36 42 -18 34 -19 35 -26 13z"/>
<path d="M2349 2455 c-16 -26 -42 -50 -68 -62 -37 -19 -40 -22 -22 -28 36 -11
79 -54 86 -85 6 -29 25 -42 25 -17 0 21 44 66 82 85 l38 18 -35 18 c-22 12
-43 36 -58 65 l-23 47 -25 -41z"/>
<path d="M3820 2339 c0 -22 -42 -70 -78 -88 l-36 -18 36 -17 c26 -13 41 -30
56 -63 l20 -46 16 30 c18 37 71 83 94 83 10 1 1 9 -19 20 -26 14 -42 32 -55
65 -18 42 -34 59 -34 34z"/>
<path d="M4708 2285 c-15 -30 -23 -57 -19 -60 7 -4 54 105 48 112 -2 1 -15
-22 -29 -52z"/>
<path d="M1200 2208 c1 -57 32 -185 55 -230 93 -179 178 -299 287 -404 273
-265 664 -455 1075 -520 139 -22 430 -22 558 0 248 42 386 86 592 186 137 67
284 159 349 217 16 16 46 40 65 54 65 50 81 68 73 80 -4 7 -3 9 4 5 6 -3 23 6
39 21 63 63 206 242 252 317 68 112 140 258 134 274 -4 9 -9 7 -20 -8 -8 -11
-11 -26 -7 -33 4 -6 4 -9 -1 -5 -5 5 -24 -16 -43 -45 -138 -207 -271 -354
-452 -498 -347 -276 -757 -418 -1213 -421 -236 -1 -444 33 -652 108 -55 19
-116 40 -135 46 -19 5 -42 16 -50 23 -8 7 -40 25 -70 40 -56 28 -203 123 -275
178 -151 116 -337 313 -434 460 -33 51 -72 109 -86 130 -25 37 -45 48 -45 25z"/>
<path d="M3313 2033 c-25 -68 -104 -141 -174 -162 -19 -5 -26 -10 -15 -10 10
-1 41 -13 69 -28 42 -24 55 -37 79 -88 15 -33 28 -66 28 -72 0 -23 18 -13 24
13 16 61 73 121 139 145 20 7 37 15 37 19 0 3 -20 16 -45 29 -51 27 -73 53
-101 123 -20 51 -31 59 -41 31z"/>
<path d="M3724 1977 c-10 -13 -28 -29 -39 -35 -17 -10 -17 -11 -3 -12 10 0 22
-9 28 -19 11 -22 25 -22 58 -1 25 17 30 35 6 26 -8 -3 -13 -2 -11 2 2 4 -1 19
-7 35 l-12 27 -20 -23z"/>
<path d="M3586 1669 c-21 -22 -48 -44 -60 -49 -13 -6 -15 -9 -6 -10 23 -1 56
-33 77 -74 l20 -38 13 31 c15 38 55 71 84 71 17 0 15 4 -11 16 -18 9 -35 24
-38 33 -3 9 -13 26 -23 38 l-17 22 -39 -40z"/>
<path d="M60 320 l0 -180 40 0 40 0 0 107 c0 59 4 103 8 97 5 -5 17 -35 27
-67 16 -55 19 -58 47 -55 28 3 32 8 50 66 11 35 22 61 26 58 5 -6 9 -63 11
-163 1 -42 2 -43 36 -43 l35 0 0 180 0 180 -48 0 -49 0 -30 -97 c-34 -111 -34
-111 -74 25 l-21 72 -49 0 -49 0 0 -180z"/>
<path d="M475 383 c-15 -65 -31 -125 -35 -133 -4 -8 -11 -36 -14 -62 l-7 -48
38 0 c34 0 40 4 50 30 10 27 16 30 53 30 37 0 42 -3 51 -30 10 -26 16 -30 50
-30 48 0 48 -1 9 150 -17 63 -35 136 -41 163 l-11 47 -57 0 -58 0 -28 -117z
m109 -80 c6 -43 6 -43 -25 -43 -31 0 -31 0 -24 43 4 23 12 53 18 67 l10 25 7
-25 c4 -14 10 -44 14 -67z"/>
<path d="M740 464 l0 -37 55 6 c31 3 57 1 61 -4 3 -6 -24 -57 -60 -115 -48
-77 -66 -115 -66 -140 l0 -35 113 3 c110 3 112 4 115 27 5 32 -13 42 -70 39
-26 -1 -50 1 -53 4 -3 3 10 32 30 64 20 33 41 68 48 79 7 11 20 31 30 44 9 13
17 41 17 62 l0 39 -110 0 -110 0 0 -36z"/>
<path d="M1000 320 l0 -180 45 0 45 0 0 180 0 180 -45 0 -45 0 0 -180z"/>
<path d="M1140 320 l0 -180 40 0 40 0 0 90 c0 50 3 90 8 90 4 0 23 -40 44 -88
l36 -87 39 0 38 0 3 178 2 177 -44 0 -45 0 -3 -97 -3 -98 -39 98 -40 97 -38 0
-38 0 0 -180z"/>
<path d="M1480 494 c-35 -14 -40 -36 -40 -175 0 -154 4 -163 66 -175 45 -8
132 1 150 17 10 8 14 35 14 90 l0 79 -55 0 c-52 0 -55 -1 -55 -25 0 -14 5 -25
10 -25 6 0 10 -18 10 -40 0 -36 -2 -40 -25 -40 l-25 0 0 120 0 120 25 0 c21 0
25 -5 25 -30 0 -29 2 -30 45 -30 l45 0 0 44 c0 27 -6 48 -15 56 -17 14 -149
24 -175 14z"/>
<path d="M1720 320 l0 -180 50 0 50 0 0 180 0 180 -50 0 -50 0 0 -180z"/>
<path d="M1870 320 l0 -180 45 0 45 0 0 65 c0 36 4 65 8 65 5 0 20 -28 34 -62
l26 -63 46 -3 c25 -2 46 0 46 3 0 3 -13 32 -29 64 l-28 57 23 21 c21 19 24 30
24 97 0 69 -2 76 -26 95 -23 18 -41 21 -120 21 l-94 0 0 -180z m150 60 c0 -49
-1 -50 -30 -50 -29 0 -30 1 -30 50 0 49 1 50 30 50 29 0 30 -1 30 -50z"/>
<path d="M2226 478 c-3 -13 -22 -86 -42 -163 -19 -77 -37 -148 -40 -157 -5
-15 1 -18 35 -18 34 0 42 4 53 27 12 24 19 28 58 28 39 0 45 -3 50 -25 5 -21
12 -25 48 -28 30 -2 42 1 42 10 0 7 -20 87 -44 178 l-43 165 -55 3 c-50 3 -56
1 -62 -20z m79 -152 c8 -31 15 -59 15 -61 0 -3 -13 -5 -30 -5 -20 0 -30 5 -30
15 0 23 22 117 26 112 2 -2 11 -30 19 -61z"/>
<path d="M2570 321 l0 -181 40 0 40 0 0 105 c0 111 12 135 30 63 19 -76 27
-88 58 -88 27 0 30 4 47 65 9 36 21 68 26 71 5 3 9 -44 9 -106 l0 -111 38 3
37 3 3 178 2 178 -51 -3 -51 -3 -26 -83 c-15 -46 -31 -84 -37 -84 -5 -1 -22
37 -36 83 l-26 84 -51 3 -52 3 0 -180z"/>
<path d="M2992 490 c-35 -15 -44 -54 -40 -187 4 -156 6 -158 123 -158 120 0
120 0 120 175 0 171 -1 173 -108 177 -39 2 -82 -2 -95 -7z m109 -72 c4 -89 -2
-203 -12 -209 -32 -19 -39 2 -39 112 l0 109 25 0 c14 0 25 -6 26 -12z"/>
<path d="M3230 490 c0 -10 51 -231 71 -307 l12 -43 52 0 53 0 41 168 c23 92
41 173 41 180 0 8 -15 12 -43 12 l-44 0 -18 -102 c-20 -113 -30 -136 -40 -92
-4 16 -11 45 -15 64 -5 19 -11 56 -15 83 l-6 47 -45 0 c-24 0 -44 -4 -44 -10z"/>
<path d="M3540 320 l0 -180 104 0 c103 0 104 0 110 25 10 38 -1 47 -53 45 -71
-4 -71 -4 -71 40 l0 40 53 0 c51 0 53 1 52 28 0 25 -3 27 -50 32 -50 5 -50 5
-53 43 l-3 37 60 0 61 0 0 35 0 35 -105 0 -105 0 0 -180z"/>
<path d="M3800 319 l0 -180 38 3 37 3 2 90 c1 50 2 97 2 104 1 29 20 -4 33
-59 13 -51 17 -55 45 -58 30 -3 32 -1 54 70 l24 73 3 -112 3 -113 39 0 40 0 0
180 0 180 -49 0 -49 0 -22 -72 c-11 -40 -23 -81 -26 -90 -10 -35 -24 -16 -50
72 l-27 90 -49 0 -48 0 0 -181z"/>
<path d="M4170 320 l0 -181 108 3 107 3 0 30 c0 29 -2 30 -50 32 -27 1 -56 2
-62 2 -8 1 -13 16 -13 41 l0 40 50 0 c36 0 50 4 50 14 0 8 3 21 6 30 5 12 -5
15 -48 18 l-53 3 -3 38 -3 37 60 0 61 0 0 35 0 35 -105 0 -105 0 0 -180z"/>
<path d="M4430 320 l0 -180 40 0 40 0 0 92 c0 108 7 107 54 -9 l32 -78 39 0
40 0 3 178 2 177 -44 0 -45 0 -3 -97 -3 -98 -40 97 -40 98 -37 0 -38 0 0 -180z"/>
<path d="M4712 468 c3 -29 7 -33 36 -36 l32 -3 0 -145 0 -145 43 3 42 3 3 143
c2 132 4 142 21 142 37 0 51 12 51 41 l0 29 -116 0 -115 0 3 -32z"/>
</g>
</svg>
